<?xml version="1.0"?><svg width="300" height="300" xmlns="http://www.w3.org/2000/svg">
 <g>
  <title>Layer 1</title>
  <g id="Layer_1">
   <g id="svg_1">
    <g id="surface0">
     <path d="m100.733002,100.942001c5.818001,-0.755005 11.852997,1.204002 16.410995,4.827995c4.852005,3.93 7.406006,10.082001 7.998001,16.188004c-0.269997,6.198006 -2.796997,12.497002 -7.539001,16.624992c-5.802994,5.02301 -14.376999,6.811005 -21.590996,3.988007c-10.436005,-3.522003 -16.887001,-16.100998 -13.176003,-26.57c2.408005,-7.964996 9.656998,-13.999001 17.897003,-15.058998z" stroke-width="0.1" stroke-miterlimit="10" stroke="#000000" fill="#ffffff" id="svg_2"/>
     <path d="m100.733002,100.942001c5.818001,-0.755005 11.852997,1.204002 16.410995,4.827995c4.852005,3.93 7.406006,10.082001 7.998001,16.188004c-0.269997,6.198006 -2.796997,12.497002 -7.539001,16.624992c-5.802994,5.02301 -14.376999,6.811005 -21.590996,3.988007c-10.436005,-3.522003 -16.887001,-16.100998 -13.176003,-26.57c2.408005,-7.964996 9.656998,-13.999001 17.897003,-15.058998z" fill="#ffffff" id="svg_3"/>
     <path d="m238.673996,100.950996c5.630997,-0.764999 11.459,1.065002 15.979004,4.428001c5.159988,3.906006 7.893997,10.285004 8.492996,16.604004c-0.286011,6.195999 -2.809998,12.490005 -7.557999,16.612c-5.776993,4.990997 -14.296997,6.783005 -21.483994,4.007004c-10.462997,-3.479004 -16.972,-16.053001 -13.285004,-26.544006c2.384003,-7.970001 9.617004,-14.026001 17.854996,-15.107002z" stroke-width="0.1" stroke-miterlimit="10" stroke="#000000" fill="#ffffff" id="svg_4"/>
     <path d="m238.673996,100.950996c5.630997,-0.764999 11.459,1.065002 15.979004,4.428001c5.159988,3.906006 7.893997,10.285004 8.492996,16.604004c-0.286011,6.195999 -2.809998,12.490005 -7.557999,16.612c-5.776993,4.990997 -14.296997,6.783005 -21.483994,4.007004c-10.462997,-3.479004 -16.972,-16.053001 -13.285004,-26.544006c2.384003,-7.970001 9.617004,-14.026001 17.854996,-15.107002z" fill="#ffffff" id="svg_5"/>
     <path d="m22.937,157.977997c33.049999,-2.059998 65.929996,-6.992996 99.082996,-7.054001c4.871002,0.230011 10.075005,2.040009 12.800011,6.337997c1.76799,2.178009 0.882996,5.164001 -0.103012,7.480011c-1.862991,4.084 -6.291,6.417999 -10.629997,6.759995c-9.078995,0.729004 -18.145996,-0.485001 -27.198997,-1.005997c-12.956001,-1.115005 -25.965004,-1.438995 -38.918999,-2.568008c-12.588001,-1.022995 -25.114002,-2.626999 -37.666002,-4.005997c10.08,12.719009 20.021002,25.548996 30.078001,38.287003c5.942001,-8.962006 13.767002,-17.399994 24.212002,-20.914001c5.978996,-1.779999 12.804001,-2.667999 18.556999,0.328995c12.246002,5.886002 20.776001,16.927002 29.169998,27.213013c3.014999,3.498993 5.278,7.658997 8.655998,10.826996c16.229996,0.367004 32.494003,0.061005 48.737,0.140991c2.302002,-4.64299 4.656006,-9.259995 6.949997,-13.904999c-10.306992,-13.559998 -20.80899,-26.970001 -31.110001,-40.529999c-2.138,-3.519989 -6.799988,-3.237991 -10.17099,-4.839996c6.05899,-2.621002 12.822998,-1.828003 19.233002,-2.630997c29.835999,-1.878998 59.491989,-6.395004 89.414001,-6.854996c7.242996,-0.850006 16.852005,0.300995 19.791,8.151993c0.125,4.246002 -2.072021,8.768005 -6.085999,10.548004c-5.506012,2.73999 -11.838013,1.929001 -17.764008,1.789993c-11.986008,-0.869003 -23.962997,-1.854996 -35.966995,-2.475998c-17.309006,-0.878006 -34.521011,-2.932999 -51.719009,-5.011993c9.363998,11.942001 18.578003,24.00499 27.804001,36.056c7.145996,-10.528 17.638,-20.369003 30.95401,-21.294998c8.954987,-1.278 16.738998,4.54599 23.177994,10c9.860992,9.046997 17.774994,19.926987 25.889984,30.503998c9.962006,0.151993 19.926025,0.030991 29.890015,0.069992l0,6c-30.093994,0.022003 -60.182007,0.415009 -90.276993,0.222c18.722992,24.229996 37.382996,48.513 56.048996,72.786011c-0.420013,0.401978 -1.261993,1.208984 -1.68399,1.610992l-4.960999,0c-19.025009,-24.792999 -38.14801,-49.511993 -57.16301,-74.313995c-28.978012,0.192993 -57.965012,0.12999 -86.947006,0.130997c-15.283997,0.699005 -30.592995,0.237991 -45.889,0.352005c18.862999,24.052994 37.806,48.052002 56.554001,72.190002c-0.388,0.41098 -1.163002,1.230988 -1.549995,1.641998l-4.964005,0c-17.386002,-21.998016 -34.614998,-44.125 -51.945,-66.168015c-2.066002,-2.496994 -3.764999,-5.350998 -6.213001,-7.497986c-20.321999,-0.367004 -40.674999,-0.045013 -61.008988,-0.153l0,-5.800003c13.62799,-0.069 27.281991,0.220993 40.889989,-0.396011c2.424,-3.748993 4.101002,-7.923996 6.148003,-11.881989c-11.801003,-15.154007 -23.785002,-30.169998 -35.488002,-45.400009c-2.41999,-0.613998 -4.81799,-1.317993 -7.17299,-2.146988c5.82699,-2.601013 12.369989,-1.830002 18.55899,-2.57901z" stroke-width="0.1" stroke-miterlimit="10" stroke="#000000" fill="#ffffff" id="svg_6"/>
     <path d="m22.937,157.977997c33.049999,-2.059998 65.929996,-6.992996 99.082996,-7.054001c4.871002,0.230011 10.075005,2.040009 12.800011,6.337997c1.76799,2.178009 0.882996,5.164001 -0.103012,7.480011c-1.862991,4.084 -6.291,6.417999 -10.629997,6.759995c-9.078995,0.729004 -18.145996,-0.485001 -27.198997,-1.005997c-12.956001,-1.115005 -25.965004,-1.438995 -38.918999,-2.568008c-12.588001,-1.022995 -25.114002,-2.626999 -37.666002,-4.005997c10.08,12.719009 20.021002,25.548996 30.078001,38.287003c5.942001,-8.962006 13.767002,-17.399994 24.212002,-20.914001c5.978996,-1.779999 12.804001,-2.667999 18.556999,0.328995c12.246002,5.886002 20.776001,16.927002 29.169998,27.213013c3.014999,3.498993 5.278,7.658997 8.655998,10.826996c16.229996,0.367004 32.494003,0.061005 48.737,0.140991c2.302002,-4.64299 4.656006,-9.259995 6.949997,-13.904999c-10.306992,-13.559998 -20.80899,-26.970001 -31.110001,-40.529999c-2.138,-3.519989 -6.799988,-3.237991 -10.17099,-4.839996c6.05899,-2.621002 12.822998,-1.828003 19.233002,-2.630997c29.835999,-1.878998 59.491989,-6.395004 89.414001,-6.854996c7.242996,-0.850006 16.852005,0.300995 19.791,8.151993c0.125,4.246002 -2.072021,8.768005 -6.085999,10.548004c-5.506012,2.73999 -11.838013,1.929001 -17.764008,1.789993c-11.986008,-0.869003 -23.962997,-1.854996 -35.966995,-2.475998c-17.309006,-0.878006 -34.521011,-2.932999 -51.719009,-5.011993c9.363998,11.942001 18.578003,24.00499 27.804001,36.056c7.145996,-10.528 17.638,-20.369003 30.95401,-21.294998c8.954987,-1.278 16.738998,4.54599 23.177994,10c9.860992,9.046997 17.774994,19.926987 25.889984,30.503998c9.962006,0.151993 19.926025,0.030991 29.890015,0.069992l0,6c-30.093994,0.022003 -60.182007,0.415009 -90.276993,0.222c18.722992,24.229996 37.382996,48.513 56.048996,72.786011c-0.420013,0.401978 -1.261993,1.208984 -1.68399,1.610992l-4.960999,0c-19.025009,-24.792999 -38.14801,-49.511993 -57.16301,-74.313995c-28.978012,0.192993 -57.965012,0.12999 -86.947006,0.130997c-15.283997,0.699005 -30.592995,0.237991 -45.889,0.352005c18.862999,24.052994 37.806,48.052002 56.554001,72.190002c-0.388,0.41098 -1.163002,1.230988 -1.549995,1.641998l-4.964005,0c-17.386002,-21.998016 -34.614998,-44.125 -51.945,-66.168015c-2.066002,-2.496994 -3.764999,-5.350998 -6.213001,-7.497986c-20.321999,-0.367004 -40.674999,-0.045013 -61.008988,-0.153l0,-5.800003c13.62799,-0.069 27.281991,0.220993 40.889989,-0.396011c2.424,-3.748993 4.101002,-7.923996 6.148003,-11.881989c-11.801003,-15.154007 -23.785002,-30.169998 -35.488002,-45.400009c-2.41999,-0.613998 -4.81799,-1.317993 -7.17299,-2.146988c5.82699,-2.601013 12.369989,-1.830002 18.55899,-2.57901z" fill="#ffffff" id="svg_7"/>
     <path d="m198.826004,211.246002c6.550995,-5.984009 13.377991,-12.367004 22.011993,-15.057007c9.440002,5.06601 14.928009,14.835007 20.719009,23.45401c-12.059006,-0.161011 -24.13501,0.195999 -36.182007,-0.167999c-2.593994,-2.387009 -4.406006,-5.460999 -6.548996,-8.229004z" stroke-width="0.1" stroke-miterlimit="10" stroke="#ffffff" fill="#ffffff" id="svg_8"/>
     <path d="m198.826004,211.246002c6.550995,-5.984009 13.377991,-12.367004 22.011993,-15.057007c9.440002,5.06601 14.928009,14.835007 20.719009,23.45401c-12.059006,-0.161011 -24.13501,0.195999 -36.182007,-0.167999c-2.593994,-2.387009 -4.406006,-5.460999 -6.548996,-8.229004z" fill="#ffffff" id="svg_9"/>
     <path d="m59.001999,213.220993c6.604004,-6.653 13.954002,-12.919998 22.849998,-16.228989c9.045006,5.362991 14.851006,14.468994 20.280006,23.18399c-12.416,-0.062988 -24.839005,0.145004 -37.249001,-0.093994c-2.427002,-1.826996 -3.954002,-4.559006 -5.881004,-6.861008z" stroke-width="0.1" stroke-miterlimit="10" stroke="#ffffff" fill="#ffffff" id="svg_10"/>
     <path d="m59.001999,213.220993c6.604004,-6.653 13.954002,-12.919998 22.849998,-16.228989c9.045006,5.362991 14.851006,14.468994 20.280006,23.18399c-12.416,-0.062988 -24.839005,0.145004 -37.249001,-0.093994c-2.427002,-1.826996 -3.954002,-4.559006 -5.881004,-6.861008z" fill="#ffffff" id="svg_11"/>
     <path d="m190.658005,219.610992c1.283997,-1.171997 2.554993,-2.358994 3.817993,-3.552994c0.962997,1.188004 1.928009,2.380005 2.914001,3.555008c-2.244995,-0.004013 -4.490005,-0.002014 -6.731995,-0.002014z" stroke-width="0.1" stroke-miterlimit="10" stroke="#ffffff" fill="#ffffff" id="svg_12"/>
     <path d="m190.658005,219.610992c1.283997,-1.171997 2.554993,-2.358994 3.817993,-3.552994c0.962997,1.188004 1.928009,2.380005 2.914001,3.555008c-2.244995,-0.004013 -4.490005,-0.002014 -6.731995,-0.002014z" fill="#ffffff" id="svg_13"/>
    </g>
   </g>
  </g>
 </g>
</svg>